<svg width="251" height="61" viewBox="0 0 251 61" fill="none" xmlns="http://www.w3.org/2000/svg">
<g clip-path="url(#clip0_592_4914)">
<path d="M255.995 -63.0612C237.586 -63.0612 219.591 -57.6023 204.284 -47.3748C188.978 -37.1474 177.048 -22.6107 170.003 -5.60303C162.958 11.4046 161.115 30.1194 164.706 48.1746C168.298 66.2299 177.163 82.8147 190.18 95.8318C203.197 108.849 219.782 117.714 237.837 121.305C255.892 124.896 274.607 123.053 291.614 116.008C308.622 108.964 323.159 97.0336 333.386 81.7271C343.614 66.4207 349.073 48.4251 349.073 30.0161C349.044 5.33916 339.229 -18.319 321.78 -35.7683C304.33 -53.2176 280.672 -63.033 255.995 -63.0612V-63.0612ZM255.995 59.0935C250.244 59.0935 244.623 57.3881 239.841 54.1931C235.059 50.998 231.332 46.4568 229.131 41.1436C226.931 35.8304 226.355 29.9839 227.477 24.3434C228.599 18.703 231.368 13.5219 235.435 9.45537C239.501 5.38883 244.682 2.61948 250.323 1.49752C255.963 0.375565 261.81 0.951389 267.123 3.15218C272.436 5.35298 276.977 9.07989 280.172 13.8616C283.367 18.6434 285.073 24.2652 285.073 30.0161C285.067 37.7262 282.002 45.1189 276.55 50.5707C271.098 56.0225 263.705 59.0878 255.995 59.0935V59.0935Z" fill="#737791"/>
<path d="M469.335 29.9998C469.303 -2.68919 461.702 -34.9268 447.127 -64.1868L458.093 -71.8028C465.054 -76.6552 469.803 -84.0738 471.295 -92.4271C472.787 -100.78 470.901 -109.384 466.05 -116.347V-116.347C461.198 -123.308 453.779 -128.057 445.426 -129.549C437.073 -131.041 428.469 -129.155 421.506 -124.304L410.519 -116.667C377.946 -151.047 334.828 -173.571 288.002 -180.667V-194C288.002 -202.487 284.631 -210.626 278.63 -216.628C272.628 -222.629 264.489 -226 256.002 -226C247.515 -226 239.376 -222.629 233.375 -216.628C227.374 -210.626 224.002 -202.487 224.002 -194V-180.667C177.176 -173.571 134.058 -151.047 101.485 -116.667L90.4981 -124.304C83.5357 -129.155 74.9317 -131.041 66.5784 -129.549C58.2251 -128.057 50.8065 -123.308 45.9541 -116.347V-116.347C41.1035 -109.384 39.2168 -100.78 40.709 -92.4271C42.2013 -84.0738 46.9502 -76.6552 53.9114 -71.8028L64.8768 -64.1868C50.2721 -34.9376 42.6694 -2.69285 42.6694 29.9998C42.6694 62.6925 50.2721 94.9373 64.8768 124.187L53.9114 131.802C46.9502 136.655 42.2013 144.073 40.709 152.427C39.2168 160.78 41.1035 169.384 45.9541 176.347V176.347C50.8065 183.308 58.2251 188.057 66.5784 189.549C74.9317 191.041 83.5357 189.154 90.4981 184.304L101.485 176.667C134.058 211.047 177.176 233.57 224.002 240.667V254C224.002 262.487 227.374 270.626 233.375 276.627C239.376 282.628 247.515 286 256.002 286C264.489 286 272.628 282.628 278.63 276.627C284.631 270.626 288.002 262.487 288.002 254V240.667C334.828 233.57 377.946 211.047 410.519 176.667L421.506 184.304C428.469 189.154 437.073 191.041 445.426 189.549C453.779 188.057 461.198 183.308 466.05 176.347C470.901 169.384 472.787 160.78 471.295 152.427C469.803 144.073 465.054 136.655 458.093 131.802L447.127 124.187C461.702 94.9265 469.303 62.6889 469.335 29.9998V29.9998ZM256.002 179.333C226.467 179.333 197.595 170.575 173.037 154.166C148.479 137.757 129.339 114.434 118.036 87.1472C106.733 59.8601 103.776 29.8342 109.538 0.866359C115.3 -28.1015 129.523 -54.7101 150.407 -75.5948C171.292 -96.4794 197.901 -110.702 226.869 -116.464C255.836 -122.226 285.862 -119.269 313.15 -107.966C340.437 -96.6635 363.759 -77.523 380.168 -52.9653C396.577 -28.4076 405.335 0.464498 405.335 29.9998C405.285 69.5899 389.535 107.544 361.541 135.538C333.546 163.533 295.592 179.282 256.002 179.333V179.333Z" fill="#737791"/>
</g>
<defs>
<clipPath id="clip0_592_4914">
<rect width="512" height="512" fill="white" transform="translate(0 -226)"/>
</clipPath>
</defs>
</svg>
