<svg width="251" height="61" viewBox="0 0 251 61" fill="none" xmlns="http://www.w3.org/2000/svg">
<g clip-path="url(#clip0_592_4884)">
<path d="M149.334 19.3332C149.334 10.8462 152.706 2.70689 158.707 -3.29427C164.708 -9.29543 172.847 -12.6668 181.334 -12.6668H245.334C253.821 -12.6668 261.96 -9.29543 267.962 -3.29427C273.963 2.70689 277.334 10.8462 277.334 19.3332C277.334 27.8201 273.963 35.9594 267.962 41.9606C261.96 47.9617 253.821 51.3331 245.334 51.3331H181.334C172.847 51.3331 164.708 47.9617 158.707 41.9606C152.706 35.9594 149.334 27.8201 149.334 19.3332ZM181.334 -55.3335H330.667C339.154 -55.3335 347.294 -58.7049 353.295 -64.7061C359.296 -70.7073 362.667 -78.8466 362.667 -87.3335C362.667 -95.8204 359.296 -103.96 353.295 -109.961C347.294 -115.962 339.154 -119.334 330.667 -119.334H181.334C172.847 -119.334 164.708 -115.962 158.707 -109.961C152.706 -103.96 149.334 -95.8204 149.334 -87.3335C149.334 -78.8466 152.706 -70.7073 158.707 -64.7061C164.708 -58.7049 172.847 -55.3335 181.334 -55.3335ZM448.001 200.112V262.874C448 267.439 446.646 271.901 444.109 275.696C441.573 279.492 437.968 282.45 433.751 284.196C429.534 285.943 424.893 286.4 420.416 285.51C415.939 284.62 411.826 282.422 408.598 279.194L384.001 254.597L359.403 279.194C356.175 282.422 352.063 284.62 347.586 285.51C343.109 286.4 338.468 285.943 334.251 284.196C330.033 282.45 326.429 279.492 323.892 275.696C321.356 271.901 320.002 267.439 320.001 262.874V200.112C300.696 185.583 286.909 164.919 280.906 141.515C274.903 118.111 277.042 93.3618 286.97 71.335C296.899 49.3081 314.027 31.3149 335.538 20.3134C357.049 9.31194 381.663 5.95688 405.334 10.7998V-108.667C405.334 -122.812 399.715 -136.377 389.713 -146.379C379.711 -156.381 366.146 -162 352.001 -162L160.15 -161.19C153.134 -161.209 146.182 -159.844 139.695 -157.173C133.207 -154.501 127.31 -150.576 122.341 -145.621C117.373 -140.667 113.431 -134.781 110.741 -128.301C108.052 -121.82 106.667 -114.873 106.667 -107.856V147.333C106.667 161.478 112.287 175.044 122.288 185.046C132.29 195.047 145.856 200.666 160.001 200.666H245.334C253.821 200.666 261.96 204.038 267.962 210.039C273.963 216.04 277.334 224.18 277.334 232.666C277.334 241.153 273.963 249.293 267.962 255.294C261.96 261.295 253.821 264.666 245.334 264.666H160.001C128.894 264.627 99.073 252.252 77.0773 230.257C55.0816 208.261 42.707 178.44 42.6675 147.333V-107.856C42.707 -138.963 55.0816 -168.784 77.0773 -190.78C99.073 -212.775 128.894 -225.15 160.001 -225.19L351.851 -226C382.981 -225.989 412.834 -213.628 434.859 -191.631C456.885 -169.633 469.283 -139.796 469.334 -108.667V51.9945C477.736 63.0909 483.853 75.744 487.33 89.221C490.807 102.698 491.576 116.731 489.592 130.507C487.608 144.283 482.91 157.529 475.771 169.477C468.631 181.425 459.193 191.837 448.001 200.112V200.112ZM341.334 115.333C341.334 123.772 343.837 132.021 348.525 139.037C353.213 146.054 359.877 151.523 367.673 154.752C375.469 157.981 384.048 158.826 392.325 157.18C400.601 155.534 408.204 151.47 414.171 145.503C420.138 139.536 424.201 131.934 425.848 123.657C427.494 115.38 426.649 106.802 423.42 99.0053C420.19 91.209 414.722 84.5454 407.705 79.8571C400.689 75.1688 392.439 72.6665 384.001 72.6665C372.685 72.6665 361.832 77.1617 353.831 85.1633C345.829 93.1648 341.334 104.017 341.334 115.333Z" fill="#737791"/>
</g>
<defs>
<clipPath id="clip0_592_4884">
<rect width="512" height="512" fill="white" transform="translate(0 -226)"/>
</clipPath>
</defs>
</svg>
