<svg width="251" height="61" viewBox="0 0 251 61" fill="none" xmlns="http://www.w3.org/2000/svg">
<g clip-path="url(#clip0_592_4876)">
<path d="M394.668 -23.3335C403.155 -23.3335 411.295 -26.7049 417.296 -32.7061C423.297 -38.7072 426.668 -46.8466 426.668 -55.3335V-69.9895C426.629 -100.038 414.675 -128.845 393.427 -150.092C372.179 -171.34 343.373 -183.294 313.324 -183.333H288.002V-194C288.002 -202.487 284.63 -210.626 278.629 -216.628C272.628 -222.629 264.489 -226 256.002 -226C247.515 -226 239.375 -222.629 233.374 -216.628C227.373 -210.626 224.002 -202.487 224.002 -194V-183.333H198.679C171.468 -183.374 145.15 -173.624 124.534 -155.864C103.918 -138.104 90.3786 -113.52 86.3902 -86.6028C82.4018 -59.6855 88.2302 -32.2317 102.811 -9.25663C117.391 13.7185 139.751 30.6813 165.804 38.5332L224.002 54.4478V179.333H198.679C185.597 179.316 173.056 174.112 163.806 164.862C154.556 155.612 149.352 143.071 149.335 129.989V115.333C149.335 106.846 145.964 98.7069 139.962 92.7058C133.961 86.7046 125.822 83.3332 117.335 83.3332C108.848 83.3332 100.709 86.7046 94.7075 92.7058C88.7064 98.7069 85.335 106.846 85.335 115.333V129.989C85.3745 160.038 97.3287 188.844 118.576 210.092C139.824 231.339 168.63 243.294 198.679 243.333H224.002V254C224.002 262.487 227.373 270.626 233.374 276.627C239.375 282.628 247.515 286 256.002 286C264.489 286 272.628 282.628 278.629 276.627C284.63 270.626 288.002 262.487 288.002 254V243.333H313.324C340.535 243.374 366.853 233.623 387.469 215.864C408.086 198.104 421.625 173.52 425.613 146.602C429.602 119.685 423.773 92.2314 409.193 69.2563C394.612 46.2812 372.253 29.3184 346.199 21.4665L288.002 5.5945V-119.333H313.324C326.406 -119.317 338.947 -114.112 348.197 -104.862C357.447 -95.6121 362.651 -83.0711 362.668 -69.9895V-55.3335C362.668 -46.8466 366.04 -38.7072 372.041 -32.7061C378.042 -26.7049 386.181 -23.3335 394.668 -23.3335ZM328.151 82.8852C339.405 86.4318 349.017 93.8925 355.244 103.915C361.472 113.938 363.903 125.86 362.098 137.521C360.292 149.182 354.369 159.811 345.402 167.481C336.435 175.152 325.018 179.356 313.218 179.333H288.002V71.9198L328.151 82.8852ZM224.002 -11.9202L183.852 -22.8855C172.607 -26.4294 163.001 -33.8814 156.773 -43.8931C150.545 -53.9048 148.106 -65.815 149.898 -77.4688C151.689 -89.1227 157.593 -99.7504 166.54 -107.429C175.488 -115.108 186.888 -119.331 198.679 -119.333H224.002V-11.9202Z" fill="#737791"/>
</g>
<defs>
<clipPath id="clip0_592_4876">
<rect width="512" height="512" fill="white" transform="translate(0 -226)"/>
</clipPath>
</defs>
</svg>
