<svg width="251" height="61" viewBox="0 0 251 61" fill="none" xmlns="http://www.w3.org/2000/svg">
<g clip-path="url(#clip0_592_4892)">
<path d="M117.333 222C103.188 222 89.6229 216.381 79.621 206.379C69.619 196.377 64 182.812 64 168.667V-194C64 -202.487 60.6286 -210.626 54.6274 -216.627C48.6263 -222.629 40.4869 -226 32 -226V-226C23.5131 -226 15.3737 -222.629 9.37258 -216.627C3.37142 -210.626 0 -202.487 0 -194L0 168.667C0 199.785 12.3619 229.63 34.3661 251.634C56.3704 273.638 86.2146 286 117.333 286H480C488.487 286 496.626 282.629 502.627 276.627C508.629 270.626 512 262.487 512 254C512 245.513 508.629 237.374 502.627 231.373C496.626 225.371 488.487 222 480 222H117.333Z" fill="#737791"/>
<path d="M160 158C168.487 158 176.626 154.629 182.627 148.627C188.629 142.626 192 134.487 192 126V-2C192 -10.4869 188.629 -18.6263 182.627 -24.6274C176.626 -30.6286 168.487 -34 160 -34C151.513 -34 143.374 -30.6286 137.373 -24.6274C131.371 -18.6263 128 -10.4869 128 -2V126C128 134.487 131.371 142.626 137.373 148.627C143.374 154.629 151.513 158 160 158Z" fill="#737791"/>
</g>
<defs>
<clipPath id="clip0_592_4892">
<rect width="512" height="512" fill="white" transform="translate(0 -226)"/>
</clipPath>
</defs>
</svg>
